<svg id="Layer_1" data-name="Layer 1" xmlns="http://www.w3.org/2000/svg" viewBox="0 0 338 251.85"><defs><style>.cls-1{fill:#ebebeb;}.cls-2{fill:#e6e6e6;}.cls-3{fill:#f0f0f0;}.cls-11,.cls-16,.cls-4{fill:#fff;}.cls-5{fill:#e0e0e0;}.cls-6{fill:#f5f5f5;}.cls-7{fill:#263238;}.cls-8{fill:#ce7a63;}.cls-11,.cls-9{opacity:0.2;}.cls-10,.cls-18{fill:#01c1e5;}.cls-12{fill:#ba4d3c;}.cls-13{fill:#ffb300;}.cls-14{fill:#fc0;}.cls-15,.cls-16{opacity:0.3;}.cls-17{fill:#ffc3bd;}.cls-18{opacity:0.5;}.cls-19{fill:#ffb573;}.cls-20{fill:#b55b52;}</style></defs><rect class="cls-1" y="221.32" width="338" height="0.17"/><rect class="cls-1" x="240.2" y="226.4" width="22.39" height="0.17"/><rect class="cls-1" x="174.39" y="232.12" width="29.76" height="0.17"/><rect class="cls-1" x="263.28" y="232.67" width="30.27" height="0.17"/><rect class="cls-1" x="36.29" y="226.23" width="29.2" height="0.17"/><rect class="cls-1" x="71.51" y="226.23" width="4.28" height="0.17"/><rect class="cls-1" x="89.71" y="229.08" width="63.33" height="0.17"/><path class="cls-1" d="M35.42,195.38a3.86,3.86,0,0,1-3.86-3.85V8a3.87,3.87,0,0,1,3.86-3.83H166a3.86,3.86,0,0,1,3.86,3.86V191.53a3.85,3.85,0,0,1-3.86,3.85Z" transform="translate(-5.73 -4.21)"/><path class="cls-1" d="M181.64,195.38a3.86,3.86,0,0,1-3.86-3.85V8a3.87,3.87,0,0,1,3.86-3.83H312.18A3.86,3.86,0,0,1,316,8V191.53a3.85,3.85,0,0,1-3.84,3.85Z" transform="translate(-5.73 -4.21)"/><rect class="cls-2" x="231" y="16.32" width="63.18" height="116.16"/><rect class="cls-3" x="223.8" y="16.32" width="68.66" height="116.16"/><rect class="cls-4" x="229.56" y="22.07" width="57.16" height="104.65"/><rect class="cls-5" x="36.29" y="21.02" width="49.75" height="57.83"/><rect class="cls-6" x="37.98" y="21.02" width="51.04" height="57.83"/><rect class="cls-4" x="42.25" y="25.58" width="42.49" height="48.71"/><rect class="cls-5" x="106.09" y="54.78" width="49.75" height="57.83"/><rect class="cls-6" x="107.77" y="54.78" width="51.04" height="57.83"/><rect class="cls-4" x="112.04" y="59.34" width="42.49" height="48.71"/><path class="cls-3" d="M133.13,165a9,9,0,0,0-1,0A14.67,14.67,0,0,0,119,183.44a73.16,73.16,0,0,1,2.3,19.09v18.75A2.49,2.49,0,0,0,122,223a2.44,2.44,0,0,0,1.75.71h59.49V165Z" transform="translate(-5.73 -4.21)"/><path class="cls-6" d="M197.9,179.63a14.66,14.66,0,0,0-29.25-1,15.1,15.1,0,0,0,.47,4.78,73.54,73.54,0,0,1,2.3,19.09v18.75a2.46,2.46,0,0,0,2.46,2.46h18.8a2.46,2.46,0,0,0,2.46-2.46V201.44a66.67,66.67,0,0,1,2.27-17.89,14.83,14.83,0,0,0,.49-3.92Z" transform="translate(-5.73 -4.21)"/><rect class="cls-3" x="103.89" y="183.85" width="53.42" height="35.69"/><path class="cls-1" d="M116.4,137.52H67.09c-6.13,0-10.3,5-9.3,11.09l7.69,47.52H137l-7.69-47.52a13.56,13.56,0,0,0-12.89-11.09Z" transform="translate(-5.73 -4.21)"/><path class="cls-6" d="M130.9,137.52H80.52c-5.83,0-9.8,4.73-8.85,10.56l7.78,48H151l-7.78-48A12.92,12.92,0,0,0,130.9,137.52Z" transform="translate(-5.73 -4.21)"/><path class="cls-1" d="M113.12,184.8h49.24a3.22,3.22,0,0,1,3.22,3.22v8.11a3.22,3.22,0,0,1-3.22,3.22H113.12a1,1,0,0,1-1-1V185.76a1,1,0,0,1,1-1Z" transform="translate(-5.73 -4.21)"/><path class="cls-3" d="M60.21,165a8.87,8.87,0,0,0-1,0,14.7,14.7,0,0,0-13.57,13.66,15.1,15.1,0,0,0,.47,4.78,73.11,73.11,0,0,1,2.3,19.09v18.75a2.46,2.46,0,0,0,2.46,2.46h59.49V165Z" transform="translate(-5.73 -4.21)"/><path class="cls-6" d="M125,179.63a14.66,14.66,0,1,0-28.81,3.82,73.59,73.59,0,0,1,2.3,19.09v18.75a2.46,2.46,0,0,0,2.46,2.46h18.79a2.46,2.46,0,0,0,2.46-2.46V201.44a67.06,67.06,0,0,1,2.26-17.89A14.43,14.43,0,0,0,125,179.63Z" transform="translate(-5.73 -4.21)"/><path class="cls-5" d="M182.17,225.53H61.26a1.78,1.78,0,0,1-1.78-1.78H184a1.77,1.77,0,0,1-.53,1.27A1.75,1.75,0,0,1,182.17,225.53Z" transform="translate(-5.73 -4.21)"/><rect class="cls-2" x="277.63" y="193.82" width="29.09" height="2.39"/><rect class="cls-6" x="204.15" y="193.82" width="73.48" height="2.39"/><rect class="cls-2" x="277.63" y="206.88" width="29.09" height="2.39"/><rect class="cls-6" x="204.15" y="206.88" width="73.48" height="2.39"/><rect class="cls-2" x="277.63" y="167.69" width="29.09" height="2.39"/><rect class="cls-6" x="204.15" y="167.7" width="73.48" height="2.39"/><rect class="cls-2" x="277.63" y="180.76" width="29.09" height="2.39"/><rect class="cls-6" x="204.15" y="180.76" width="73.48" height="2.39"/><rect class="cls-2" x="296.24" y="166.38" width="5.37" height="54.94"/><rect class="cls-6" x="272.26" y="166.38" width="5.37" height="54.94"/><rect class="cls-6" x="204.15" y="166.38" width="5.37" height="54.94"/><rect class="cls-2" x="257" y="133.71" width="2.87" height="32.04"/><rect class="cls-3" x="257.37" y="133.68" width="0.81" height="32.04"/><path class="cls-3" d="M253.53,171.9h21.25a2.7,2.7,0,0,0-2.7-2.7H256.21a2.7,2.7,0,0,0-2.7,2.7Z" transform="translate(-5.73 -4.21)"/><path class="cls-3" d="M260.74,168.72v2a.41.41,0,0,1-.12.3.42.42,0,0,1-.31.13h-.79a.42.42,0,0,1-.31-.13.41.41,0,0,1-.12-.3v-2a.41.41,0,0,1,.12-.3.42.42,0,0,1,.31-.13h.79a.42.42,0,0,1,.31.13A.41.41,0,0,1,260.74,168.72Z" transform="translate(-5.73 -4.21)"/><path class="cls-6" d="M251.31,145.5H277L274.58,125a4.78,4.78,0,0,0-4.73-4.21H258.51a4.79,4.79,0,0,0-4.73,4.21Z" transform="translate(-5.73 -4.21)"/><path class="cls-6" d="M174.73,240.76h6.44l6.41,0,6.39.05,6.33.06,6.28.09,6.2.1q3.08,0,6.11.12l6,.13,5.88.15,5.75.17,5.6.19,5.43.2,5.26.21,5.07.23,4.88.25,4.65.26,4.44.27,4.2.29,4,.29,3.71.31c1.19.1,2.33.21,3.44.32s2.16.21,3.17.32l2.89.34,2.61.34c.82.12,1.59.23,2.31.35s1.4.24,2,.36,1.2.24,1.72.36,1,.24,1.41.37.78.24,1.1.37a5.77,5.77,0,0,1,.78.37,2,2,0,0,1,.48.37.56.56,0,0,1,0,.76,2,2,0,0,1-.48.37,5.77,5.77,0,0,1-.78.37c-.32.13-.69.25-1.1.37s-.89.25-1.41.37-1.1.24-1.72.36-1.29.24-2,.36-1.49.23-2.31.35l-2.61.34-2.89.34c-1,.11-2.07.22-3.17.32s-2.25.22-3.44.32L280,253l-4,.29-4.2.29-4.44.27-4.65.26c-1.59.08-3.22.17-4.88.24l-5.07.24-5.26.21-5.43.2-5.6.19-5.75.17-5.88.15-6,.13q-3,.07-6.11.12l-6.2.1-6.28.08L194,256l-6.39,0-6.41,0H168.3l-6.41,0-6.39,0-6.34-.07-6.27-.08-6.2-.1c-2.06,0-4.09-.07-6.11-.12l-6-.13-5.89-.15-5.74-.17-5.6-.19-5.43-.2-5.26-.21-5.08-.24c-1.65-.07-3.28-.16-4.87-.24l-4.66-.26-4.43-.27-4.2-.29-4-.29-3.71-.31c-1.19-.1-2.34-.21-3.44-.32s-2.16-.21-3.17-.32l-2.89-.34-2.61-.34c-.82-.12-1.59-.23-2.31-.35s-1.4-.24-2-.36-1.2-.24-1.72-.36-1-.24-1.41-.37a10.83,10.83,0,0,1-1.1-.37,5.77,5.77,0,0,1-.78-.37,2,2,0,0,1-.48-.37.53.53,0,0,1,0-.76,2,2,0,0,1,.48-.37,5.77,5.77,0,0,1,.78-.37,10.83,10.83,0,0,1,1.1-.37c.42-.13.89-.25,1.41-.37s1.1-.24,1.72-.36,1.29-.24,2-.36,1.49-.23,2.31-.35l2.61-.34,2.89-.34c1-.11,2.07-.22,3.17-.32s2.25-.22,3.44-.32l3.71-.31,4-.29,4.2-.29,4.43-.27,4.66-.26,4.87-.25,5.08-.23,5.26-.21,5.43-.2,5.6-.19,5.74-.17,5.89-.15,6-.13c2-.05,4-.09,6.11-.12l6.2-.1,6.27-.09,6.34-.06,6.39-.05,6.41,0Z" transform="translate(-5.73 -4.21)"/><path class="cls-7" d="M205.63,76.79l-.24.8-.21.68c-.15.45-.31.87-.48,1.3-.32.84-.67,1.67-1.06,2.49a45.71,45.71,0,0,1-2.53,4.73c-.47.76-1,1.5-1.46,2.24s-1,1.44-1.6,2.14a45,45,0,0,1-3.54,4l-.26.27a4.11,4.11,0,0,1-1.27.89,10.13,10.13,0,0,1-4.48.83,11.34,11.34,0,0,1-3.88-.91,14.18,14.18,0,0,1-2.9-1.67,21.85,21.85,0,0,1-2.28-1.92A28.86,28.86,0,0,1,176,88.44c-.5-.73-1-1.48-1.4-2.23s-.82-1.52-1.23-2.39a2.7,2.7,0,0,1,4.28-3.14l.18.16,1.65,1.52c.56.51,1.13,1,1.71,1.48a30.54,30.54,0,0,0,3.45,2.53,9.65,9.65,0,0,0,3.1,1.35,1.54,1.54,0,0,0,.85,0,.43.43,0,0,0,.22-.2l-1.55,1.17c.85-1.16,1.69-2.33,2.45-3.55s1.49-2.48,2.18-3.74,1.31-2.57,1.89-3.87c.3-.68.56-1.31.83-2l.68-1.77.19-.49a5.4,5.4,0,0,1,10.2,3.47Z" transform="translate(-5.73 -4.21)"/><path class="cls-8" d="M175.25,83.86l-4.57-1.59-1-6.26s7.66,2,7.62,5.72Z" transform="translate(-5.73 -4.21)"/><path class="cls-7" d="M202.17,51.25c-3-1-7.1-4.62-5.49-9.24,1.23-3.5,5.79-3.81,7.58-2.76s1.87-1.1,4.16-1.93,3.91,1.25,5.07,2.34,2.52.26,4.24.34a2.67,2.67,0,0,1,2,1.47,2.72,2.72,0,0,1,0,2.51c-1.69,2.89,1.1,4.73-1,7-3.11,3.28-.67,6.5-5.07,9.76C211,62.73,203.39,59.06,202.17,51.25Z" transform="translate(-5.73 -4.21)"/><path class="cls-7" d="M202.11,54.3a.77.77,0,0,1-.36.12.85.85,0,0,1-.92-.77,8.43,8.43,0,0,1,2.78-7.24.85.85,0,0,1,1.06,1.33,6.72,6.72,0,0,0-2.14,5.76A.86.86,0,0,1,202.11,54.3Z" transform="translate(-5.73 -4.21)"/><path class="cls-4" d="M197.25,70s-6,15.35-.3,43.94h27.18c.19-4.17-2.43-24.52,1.59-44.18a71.17,71.17,0,0,0-9.1-1.15,101.14,101.14,0,0,0-11.55,0A50.64,50.64,0,0,0,197.25,70Z" transform="translate(-5.73 -4.21)"/><path class="cls-8" d="M215.48,55.59c-.73,3.72-1.46,10.53,1.14,13,0,0-4.35,3.53-8.93,7.1a7.69,7.69,0,0,1-2.62-7.1c4.14-1,4.05-4.06,3.31-7Z" transform="translate(-5.73 -4.21)"/><path class="cls-9" d="M212.59,58.08l-4.2,3.58a11.84,11.84,0,0,1,.36,2c1.35,1.29,3.76-2,3.93-3.62A5.55,5.55,0,0,0,212.59,58.08Z" transform="translate(-5.73 -4.21)"/><path class="cls-8" d="M215.43,49.33c.19,5.05.55,8-1.72,10.82-3.42,4.25-9.83,2.56-11.52-2.32-1.52-4.4-1.58-11.9,3.13-14.38a6.88,6.88,0,0,1,10.11,5.88Z" transform="translate(-5.73 -4.21)"/><path class="cls-7" d="M215.29,54c-1.38,2.7-3-5.85-2.57-7.28-4.9,1.36-12.42.91-11.84-2.51.68-3.86,5.17-4,10.14-3.54C219.24,41.47,216.8,51.06,215.29,54Z" transform="translate(-5.73 -4.21)"/><path class="cls-7" d="M212.87,54.48a.77.77,0,0,1-.37-.07.84.84,0,0,1-.44-1.12,8.41,8.41,0,0,1,5.9-5,.84.84,0,0,1,1,.67.85.85,0,0,1-.67,1A6.74,6.74,0,0,0,213.63,54,.83.83,0,0,1,212.87,54.48Z" transform="translate(-5.73 -4.21)"/><path class="cls-8" d="M217.94,52.88a5.06,5.06,0,0,1-2,3c-1.32.91-2.36-.21-2.32-1.8,0-1.43.76-3.62,2.23-3.9S218.28,51.39,217.94,52.88Z" transform="translate(-5.73 -4.21)"/><path class="cls-7" d="M192.66,241.74a.48.48,0,0,1-.11-.52.61.61,0,0,1,.3-.35c.77-.43,2.7.12,2.8.15a.11.11,0,0,1,.08.11.1.1,0,0,1-.08.11,8.39,8.39,0,0,1-1.46.5,2.16,2.16,0,0,1-1.53,0Z" transform="translate(-5.73 -4.21)"/><path class="cls-7" d="M195.6,241.23c-.68-.12-2.09-.89-2.13-1.47,0-.14.05-.33.36-.44a.94.94,0,0,1,.68,0c.74.36,1.18,1.66,1.2,1.71a.1.1,0,0,1-.07.16Z" transform="translate(-5.73 -4.21)"/><polygon class="cls-8" points="197.3 238.63 192.21 239.38 192.37 227.71 197.46 226.97 197.3 238.63"/><path class="cls-7" d="M197.18,240.57h6.67a.42.42,0,0,1,.41.35l.67,4.5a.8.8,0,0,1-.19.63.84.84,0,0,1-.61.27c-2,0-4.86-.15-7.37-.15-2.92,0-5.55.16-9,.16-2.07,0-2.46-2-1.6-2.29,3.84-1.44,5.9-1.68,9.78-3.07a4.11,4.11,0,0,1,1.23-.39Z" transform="translate(-5.73 -4.21)"/><polygon class="cls-9" points="192.37 227.72 192.28 233.73 197.38 232.98 197.47 226.97 192.37 227.72"/><path class="cls-7" d="M200.42,240.93c0-2.15.64-5.62-4.73-3.5-3.2,1.26,1.14,5,1.14,5Z" transform="translate(-5.73 -4.21)"/><path class="cls-10" d="M197,114s-2.7,41-1.94,55.51c.74,13.8,1.16,52.94,1.25,63.2a2.23,2.23,0,0,0,.77,1.65,2.19,2.19,0,0,0,1.73.51l3.6-.49a2.21,2.21,0,0,0,1.9-1.9c2.32-18.12,5.09-46.08,5.69-61.05.68-17.08,4.88-57.46,4.88-57.46Z" transform="translate(-5.73 -4.21)"/><path class="cls-11" d="M197,114s-2.7,41-1.94,55.51c.74,13.8,1.16,52.94,1.25,63.2a2.23,2.23,0,0,0,.77,1.65,2.19,2.19,0,0,0,1.73.51l3.6-.49a2.21,2.21,0,0,0,1.9-1.9c2.32-18.12,5.09-46.08,5.69-61.05.68-17.08,4.88-57.46,4.88-57.46Z" transform="translate(-5.73 -4.21)"/><path class="cls-7" d="M229.37,241.33a.47.47,0,0,1-.2-.49.62.62,0,0,1,.24-.41c.68-.55,2.7-.35,2.77-.34a.12.12,0,0,1,.11.09.12.12,0,0,1,0,.12,8.66,8.66,0,0,1-1.36.77,3.16,3.16,0,0,1-1.18.33A.67.67,0,0,1,229.37,241.33Z" transform="translate(-5.73 -4.21)"/><path class="cls-7" d="M232.19,240.32c-.67,0-2.2-.51-2.34-1.08,0-.13,0-.32.28-.48a.87.87,0,0,1,.67-.09c.8.23,1.47,1.42,1.5,1.47a.13.13,0,0,1,0,.12.27.27,0,0,1-.1.06Z" transform="translate(-5.73 -4.21)"/><polygon class="cls-8" points="234.34 236.4 229.54 238.03 226.36 226.75 231.15 225.12 234.34 236.4"/><path class="cls-9" d="M209.56,128.6c-1.4,5.6-1,28.89.42,42,.35-7.69,1.32-19.54,2.31-30.42Z" transform="translate(-5.73 -4.21)"/><path class="cls-7" d="M233.43,239.51l6.57-1.19a.43.43,0,0,1,.48.27l1.73,4.26a.76.76,0,0,1,0,.64.73.73,0,0,1-.53.37c-2,.33-4.82.72-7.29,1.16-2.88.53-2.9.68-6.28,1.3-2,.38-2.9-1.47-2.13-1.94,3.43-2.08,2.87-2.22,6.36-4.26a3.75,3.75,0,0,1,1.13-.61Z" transform="translate(-5.73 -4.21)"/><polygon class="cls-9" points="226.36 226.76 228 232.57 232.8 230.94 231.16 225.13 226.36 226.76"/><path class="cls-10" d="M206.59,114s3.5,41,6.2,55.51c2.6,14,14.34,53.9,17.8,63a2.21,2.21,0,0,0,2.75,1.3l3.47-1.13a2.21,2.21,0,0,0,1.48-2.51c-3.45-17.8-8.94-43.81-10.3-58.71-1.56-17.08-3.86-57.46-3.86-57.46Z" transform="translate(-5.73 -4.21)"/><path class="cls-11" d="M206.59,114s3.5,41,6.2,55.51c2.6,14,14.34,53.9,17.8,63a2.21,2.21,0,0,0,2.75,1.3l3.47-1.13a2.21,2.21,0,0,0,1.48-2.51c-3.45-17.8-8.94-43.81-10.3-58.71-1.56-17.08-3.86-57.46-3.86-57.46Z" transform="translate(-5.73 -4.21)"/><path class="cls-7" d="M208,51.48c0,.42-.14.77-.41.79S207,52,207,51.6s.15-.76.42-.79S207.93,51.08,208,51.48Z" transform="translate(-5.73 -4.21)"/><path class="cls-7" d="M203.36,51.94c0,.41-.14.76-.41.79s-.51-.29-.55-.68.14-.76.41-.79S203.32,51.53,203.36,51.94Z" transform="translate(-5.73 -4.21)"/><path class="cls-12" d="M204.85,52a14.7,14.7,0,0,1-1.61,3.68,2.36,2.36,0,0,0,2,.17Z" transform="translate(-5.73 -4.21)"/><path class="cls-7" d="M206.51,56.86a.11.11,0,0,1-.13-.11.12.12,0,0,1,.11-.13A3.19,3.19,0,0,0,209,55.1a.13.13,0,0,1,.17-.05.13.13,0,0,1,.05.16A3.44,3.44,0,0,1,206.51,56.86Z" transform="translate(-5.73 -4.21)"/><path class="cls-7" d="M209.21,49.86a.25.25,0,0,1-.2-.07,1.9,1.9,0,0,0-1.62-.68.24.24,0,0,1-.27-.2.23.23,0,0,1,0-.18.25.25,0,0,1,.16-.1,2.38,2.38,0,0,1,2,.8.24.24,0,0,1,.07.17.26.26,0,0,1-.07.17.38.38,0,0,1-.13.09Z" transform="translate(-5.73 -4.21)"/><path class="cls-7" d="M201.13,50.51a.2.2,0,0,1-.11,0,.25.25,0,0,1-.12-.32,2.39,2.39,0,0,1,1.68-1.41.25.25,0,0,1,.26.06.27.27,0,0,1,0,.27.25.25,0,0,1-.22.14,1.92,1.92,0,0,0-1.32,1.14A.24.24,0,0,1,201.13,50.51Z" transform="translate(-5.73 -4.21)"/><path class="cls-7" d="M217.32,67.76c2.65,0,9,.14,9.66,2.5s-.06,6.2-.9,8.45c1.24,3.44.84,8.5-.34,10.09,1.3,3.83.45,6.64-.34,8,.62,1.52,1.18,5.86.23,8,.79,3,1.68,8.11.28,9.13-1.91,1.35-7,2-10.6,1.18s-2.19-8.11-1.91-9.8c-1.57-2.08.12-8.34.12-8.34-.79-1.74.39-8.28.39-8.28-.95-1.57.28-10.14.28-10.14C213.17,76.83,212.72,67.76,217.32,67.76Z" transform="translate(-5.73 -4.21)"/><path class="cls-7" d="M197.86,69.33c2.08-.92,9.06-2.59,7.71-.75-2,2.67-.76,5.48-1.92,8.79,1,3.16.67,8.31-.28,10.14a12.17,12.17,0,0,1-.24,8.1,16.17,16.17,0,0,1,.18,7.94c.67,2.87,1.19,8.65,0,10a6,6,0,0,1-6.94,1.42c-1.66-.68-2.4-6.21-1.58-8.12-1.61-3.5-.3-8.7-.3-8.7-1.55-2.7-.35-8.38-.35-8.38-1.54-5,.35-10.59.35-10.59C193.66,77.62,194.54,70.8,197.86,69.33Z" transform="translate(-5.73 -4.21)"/><path class="cls-7" d="M202.45,70a2.23,2.23,0,0,1-.9-1.77,1.76,1.76,0,0,1,1.72-1.79,5.76,5.76,0,0,1,2.26.68c1.06.52,1.46,1,1.5,1.78s-1.88,3.54-2.94,2.89S203.05,70.63,202.45,70Z" transform="translate(-5.73 -4.21)"/><path class="cls-9" d="M223,79.62c.53-2.28,1.87-2.08,3.2-1.14l-.09.26c1.24,3.43.84,8.5-.34,10.09.07.21.14.43.2.67A11.18,11.18,0,0,1,223,79.62Z" transform="translate(-5.73 -4.21)"/><polygon class="cls-10" points="217.46 80.97 212.96 83.03 212.52 97.55 200.3 105.42 213.98 110.32 217.69 124.36 222.19 122.32 224.7 99.42 217.46 80.97"/><polygon class="cls-13" points="217.46 80.97 212.96 83.03 212.52 97.55 200.3 105.42 213.98 110.32 217.69 124.36 222.19 122.32 224.7 99.42 217.46 80.97"/><polygon class="cls-10" points="245.59 111.64 241.09 113.69 226.58 112.88 232.65 108.78 245.59 111.64"/><polygon class="cls-13" points="245.59 111.64 241.09 113.69 226.58 112.88 232.65 108.78 245.59 111.64"/><polygon class="cls-14" points="217.46 80.97 228.72 90.15 242.66 86.08 237.41 99.63 245.59 111.63 231.08 110.82 222.19 122.31 218.48 108.27 204.81 103.36 217.02 95.49 217.46 80.97"/><path class="cls-8" d="M230.27,114.05l-.1,4.59,5.4-.3a4.63,4.63,0,0,0-2.38-4.87Z" transform="translate(-5.73 -4.21)"/><polygon class="cls-8" points="226.17 119.02 229.91 116.87 229.85 114.12 224.43 114.42 226.17 119.02"/><path class="cls-7" d="M227.16,70.13c.44.4.78.71,1.14,1.07l1.06,1.06c.67.71,1.35,1.44,2,2.17a58.4,58.4,0,0,1,3.73,4.74,40.48,40.48,0,0,1,3.25,5.4,20.54,20.54,0,0,1,2.14,7,10.09,10.09,0,0,1,.06,1.09v1l-.12,1.54c-.12,1-.24,2-.41,3a55.42,55.42,0,0,1-1.23,5.72A67,67,0,0,1,235,114.68a2.7,2.7,0,0,1-5.17-1.35v-.11c.29-3.57.68-7.21.87-10.73.14-1.78.19-3.53.23-5.24V94.72l0-1.22v-.42a1.5,1.5,0,0,0-.06-.29,14,14,0,0,0-1.51-3.38,43.48,43.48,0,0,0-2.7-3.89c-1-1.3-2.12-2.58-3.26-3.86-.56-.63-1.15-1.25-1.73-1.88l-.88-.93-.83-.86-.14-.14a5.41,5.41,0,0,1,7.55-7.73Z" transform="translate(-5.73 -4.21)"/><path class="cls-7" d="M219.35,69.36c.68-.1.85-1.68.31-2.7-.44-.85-2-.73-3.45-.37a11.06,11.06,0,0,0-3.23,1.3c-1.44.79-.92,1.75-.59,2.5s1,2.47,2.32,1.56A17.15,17.15,0,0,1,219.35,69.36Z" transform="translate(-5.73 -4.21)"/><path class="cls-7" d="M236.4,239.21c-.1-2.16.46-5.64-4.84-3.38-3.17,1.35,1.28,4.92,1.28,4.92Z" transform="translate(-5.73 -4.21)"/><path class="cls-10" d="M169.93,71.14h7.26a1,1,0,0,1,.91.67l3.8,13.52a.52.52,0,0,1-.08.47.55.55,0,0,1-.43.21h-7.26a1,1,0,0,1-.9-.68l-3.8-13.52a.5.5,0,0,1,.07-.47.51.51,0,0,1,.43-.2Z" transform="translate(-5.73 -4.21)"/><polygon class="cls-8" points="168.16 76.04 166.63 70.74 163.98 71.8 164.94 78.06 168.16 76.04"/><path class="cls-15" d="M177.78,71.62a.35.35,0,0,1,.31.25l3.8,13.46a.15.15,0,0,1,0,.17.15.15,0,0,1-.15.07.32.32,0,0,1-.31-.24l-3.8-13.48a.2.2,0,0,1,0-.15.18.18,0,0,1,.14-.08Z" transform="translate(-5.73 -4.21)"/><rect class="cls-10" x="77.74" y="14.4" width="5.12" height="0.68"/><path class="cls-10" d="M64.55,26.28h-.68a7.67,7.67,0,0,1,7.63-7.67h9.2v.68H71.5A7,7,0,0,0,64.55,26.28Z" transform="translate(-5.73 -4.21)"/><path class="cls-10" d="M66.21,36.87V28.81a7.73,7.73,0,0,1,.6-3,7,7,0,0,1,.72-1.35,7.42,7.42,0,0,1,1-1.19,7.88,7.88,0,0,1,1.19-1A8,8,0,0,1,71,21.57a8.55,8.55,0,0,1,1.47-.44A7.93,7.93,0,0,1,74,21h74.74a7.93,7.93,0,0,1,1.53.15,8.55,8.55,0,0,1,1.47.44,8,8,0,0,1,1.35.73,7.88,7.88,0,0,1,1.19,1,7.42,7.42,0,0,1,1,1.19,7,7,0,0,1,.72,1.35,7.73,7.73,0,0,1,.6,3v8.06a7.78,7.78,0,0,1-.15,1.53,7.36,7.36,0,0,1-.45,1.47,7.08,7.08,0,0,1-.72,1.36,7.8,7.8,0,0,1-1,1.18,8,8,0,0,1-1.19,1,8.74,8.74,0,0,1-1.35.72,7.75,7.75,0,0,1-1.47.44,7.93,7.93,0,0,1-1.53.15H74a7.93,7.93,0,0,1-1.53-.15A7.75,7.75,0,0,1,71,44.11a8.74,8.74,0,0,1-1.35-.72,8,8,0,0,1-1.19-1,7.8,7.8,0,0,1-1-1.18,7.08,7.08,0,0,1-.72-1.36,7.36,7.36,0,0,1-.45-1.47A7.78,7.78,0,0,1,66.21,36.87Z" transform="translate(-5.73 -4.21)"/><polygon class="cls-4" points="94.88 25.05 96.04 27.41 98.64 27.78 96.75 29.62 97.2 32.22 94.88 30.99 92.55 32.22 93 29.62 91.11 27.79 93.71 27.41 94.88 25.05"/><polygon class="cls-4" points="105.44 25.05 106.6 27.41 109.2 27.78 107.31 29.62 107.76 32.22 105.44 30.99 103.11 32.22 103.56 29.62 101.67 27.78 104.27 27.41 105.44 25.05"/><polygon class="cls-4" points="116 25.05 117.16 27.41 119.76 27.78 117.88 29.62 118.32 32.22 116 30.99 113.67 32.22 114.12 29.62 112.23 27.79 114.83 27.41 116 25.05"/><polygon class="cls-4" points="126.55 25.05 127.72 27.41 130.32 27.78 128.44 29.62 128.88 32.22 126.55 30.99 124.23 32.22 124.67 29.62 122.79 27.79 125.39 27.41 126.55 25.05"/><polygon class="cls-16" points="137.1 31 134.77 32.22 135.22 29.63 133.33 27.79 135.93 27.41 137.1 25.06 137.1 25.06 138.26 27.41 140.86 27.79 138.98 29.63 139.42 32.22 137.1 31"/><path class="cls-11" d="M82.7,24.72a7.63,7.63,0,0,1,1.58.16,8.07,8.07,0,0,1,1.52.46,7.63,7.63,0,0,1,1.41.75,8.14,8.14,0,0,1,2.24,2.24,9,9,0,0,1,.75,1.4,8.17,8.17,0,0,1,.46,1.53,7.88,7.88,0,0,1,0,3.16A8,8,0,0,1,90.2,36a9,9,0,0,1-.75,1.4,8.47,8.47,0,0,1-1,1.23,7.86,7.86,0,0,1-1.23,1,7.63,7.63,0,0,1-1.41.75,7.4,7.4,0,0,1-1.52.46A7.63,7.63,0,0,1,82.7,41a7.73,7.73,0,0,1-1.59-.16,7.4,7.4,0,0,1-1.52-.46,7.54,7.54,0,0,1-1.4-.75,7,7,0,0,1-1.23-1,7.86,7.86,0,0,1-1-1.23A7.54,7.54,0,0,1,75.2,36a8,8,0,0,1-.47-1.53,8.4,8.4,0,0,1,0-3.16,8.2,8.2,0,0,1,.47-1.53,7.54,7.54,0,0,1,.75-1.4,7.86,7.86,0,0,1,1-1.23,8.14,8.14,0,0,1,2.63-1.76,8.07,8.07,0,0,1,1.52-.46A7.73,7.73,0,0,1,82.7,24.72Z" transform="translate(-5.73 -4.21)"/><path class="cls-4" d="M89.4,32.84A6.7,6.7,0,0,1,76.81,36,6.47,6.47,0,0,1,76,32.84a6.7,6.7,0,0,1,13.4,0Z" transform="translate(-5.73 -4.21)"/><path class="cls-7" d="M88.59,36a6.69,6.69,0,0,1-11.78,0A10.61,10.61,0,0,1,88.59,36Z" transform="translate(-5.73 -4.21)"/><path class="cls-17" d="M85.69,30.58a3,3,0,1,1-3-3A3,3,0,0,1,85.69,30.58Z" transform="translate(-5.73 -4.21)"/><rect class="cls-10" x="126.55" y="99.22" width="13.53" height="0.68"/><path class="cls-10" d="M66.21,93.92V85.85a7.73,7.73,0,0,1,.6-3,7.31,7.31,0,0,1,.72-1.35,7.42,7.42,0,0,1,1-1.19,7.88,7.88,0,0,1,1.19-1A8,8,0,0,1,71,78.61a8.55,8.55,0,0,1,1.47-.44A7.93,7.93,0,0,1,74,78h74.74a7.93,7.93,0,0,1,1.53.15,8.55,8.55,0,0,1,1.47.44,8,8,0,0,1,1.35.73,7.88,7.88,0,0,1,1.19,1,7.42,7.42,0,0,1,1,1.19,7.31,7.31,0,0,1,.72,1.35,7.73,7.73,0,0,1,.6,3v8.07a7.76,7.76,0,0,1-.15,1.52,7.36,7.36,0,0,1-.45,1.47,7.08,7.08,0,0,1-.72,1.36,7.8,7.8,0,0,1-1,1.18,8,8,0,0,1-1.19,1,8.74,8.74,0,0,1-1.35.72,7.78,7.78,0,0,1-1.47.45,7.93,7.93,0,0,1-1.53.15H74a7.93,7.93,0,0,1-1.53-.15,7.78,7.78,0,0,1-1.47-.45,8.74,8.74,0,0,1-1.35-.72,8,8,0,0,1-1.19-1,7.8,7.8,0,0,1-1-1.18,7.08,7.08,0,0,1-.72-1.36,7.36,7.36,0,0,1-.45-1.47A7.76,7.76,0,0,1,66.21,93.92Z" transform="translate(-5.73 -4.21)"/><polygon class="cls-4" points="94.88 82.09 96.04 84.45 98.64 84.82 96.76 86.66 97.2 89.25 94.88 88.02 92.55 89.25 93 86.66 91.11 84.82 93.71 84.45 94.88 82.09"/><polygon class="cls-4" points="105.44 82.09 106.6 84.45 109.2 84.82 107.31 86.66 107.76 89.25 105.44 88.02 103.11 89.25 103.56 86.66 101.67 84.82 104.27 84.45 105.44 82.09"/><polygon class="cls-4" points="116 82.09 117.16 84.45 119.76 84.82 117.88 86.66 118.32 89.25 116 88.02 113.67 89.25 114.12 86.66 112.23 84.82 114.83 84.45 116 82.09"/><polygon class="cls-4" points="126.55 82.09 127.72 84.45 130.32 84.82 128.44 86.66 128.88 89.25 126.55 88.02 124.23 89.25 124.67 86.66 122.79 84.82 125.39 84.45 126.55 82.09"/><polygon class="cls-4" points="137.11 82.09 138.28 84.45 140.88 84.82 139 86.66 139.44 89.25 137.11 88.02 134.79 89.25 135.23 86.66 133.35 84.82 135.95 84.45 137.11 82.09"/><path class="cls-11" d="M77,84.14a8.47,8.47,0,0,1,1.23-1,7.32,7.32,0,0,1,1.41-.75,8.07,8.07,0,0,1,1.52-.46,7.63,7.63,0,0,1,1.58-.16,7.73,7.73,0,0,1,1.59.16,8.07,8.07,0,0,1,1.52.46,8.14,8.14,0,0,1,2.63,1.76,7.86,7.86,0,0,1,1,1.23,7.54,7.54,0,0,1,.75,1.4,8.2,8.2,0,0,1,.47,1.53,8.4,8.4,0,0,1,0,3.16A8,8,0,0,1,90.2,93a7.54,7.54,0,0,1-.75,1.4,7.43,7.43,0,0,1-1,1.23,7,7,0,0,1-1.23,1,7.54,7.54,0,0,1-1.4.75,7.4,7.4,0,0,1-1.52.46A7.73,7.73,0,0,1,82.7,98a7.63,7.63,0,0,1-1.58-.16,7.4,7.4,0,0,1-1.52-.46,7.32,7.32,0,0,1-1.41-.75,7.86,7.86,0,0,1-1.23-1,8,8,0,0,1-1-1.23A9,9,0,0,1,75.2,93a8,8,0,0,1-.46-1.53,7.88,7.88,0,0,1,0-3.16,8.17,8.17,0,0,1,.46-1.53,9,9,0,0,1,.75-1.4A8.47,8.47,0,0,1,77,84.14Z" transform="translate(-5.73 -4.21)"/><path class="cls-4" d="M89.4,89.88a6.7,6.7,0,0,1-12.59,3.19A6.5,6.5,0,0,1,76,89.88a6.7,6.7,0,0,1,13.4,0Z" transform="translate(-5.73 -4.21)"/><path class="cls-18" d="M88.59,93.07a6.7,6.7,0,0,1-11.78,0A10.61,10.61,0,0,1,88.59,93.07Z" transform="translate(-5.73 -4.21)"/><path class="cls-19" d="M85.69,87.58a3,3,0,0,1-5.1,2.12,3,3,0,0,1,2.11-5.1A3,3,0,0,1,85.69,87.58Z" transform="translate(-5.73 -4.21)"/><path class="cls-10" d="M66.21,65.39V57.33a7.73,7.73,0,0,1,.6-3A7,7,0,0,1,67.53,53a7.42,7.42,0,0,1,1-1.19,7.88,7.88,0,0,1,1.19-1A8,8,0,0,1,71,50.09a8.55,8.55,0,0,1,1.47-.44A7.93,7.93,0,0,1,74,49.5h74.74a7.93,7.93,0,0,1,1.53.15,8.55,8.55,0,0,1,1.47.44,8,8,0,0,1,1.35.73,7.88,7.88,0,0,1,1.19,1,7.42,7.42,0,0,1,1,1.19,7,7,0,0,1,.72,1.35,7.73,7.73,0,0,1,.6,3v8.06a7.78,7.78,0,0,1-.15,1.53,7.36,7.36,0,0,1-.45,1.47,7.08,7.08,0,0,1-.72,1.36,7.8,7.8,0,0,1-1,1.18,8,8,0,0,1-1.19,1,8.74,8.74,0,0,1-1.35.72,7.75,7.75,0,0,1-1.47.44,7.93,7.93,0,0,1-1.53.15H74a7.93,7.93,0,0,1-1.53-.15A7.75,7.75,0,0,1,71,72.63a8.74,8.74,0,0,1-1.35-.72,8,8,0,0,1-1.19-1,7.8,7.8,0,0,1-1-1.18,7.08,7.08,0,0,1-.72-1.36,7.36,7.36,0,0,1-.45-1.47A7.78,7.78,0,0,1,66.21,65.39Z" transform="translate(-5.73 -4.21)"/><polygon class="cls-10" points="148.42 59.18 142.74 69.01 156.94 69.01 148.42 59.18"/><polygon class="cls-4" points="94.88 53.57 96.04 55.92 98.64 56.3 96.75 58.14 97.2 60.73 94.87 59.5 92.55 60.73 93 58.14 91.11 56.3 93.71 55.93 94.88 53.57"/><polygon class="cls-4" points="105.44 53.57 106.6 55.92 109.2 56.3 107.31 58.14 107.76 60.73 105.43 59.5 103.11 60.73 103.56 58.14 101.67 56.3 104.27 55.93 105.44 53.57"/><polygon class="cls-16" points="115.98 59.51 113.66 60.73 114.1 58.14 112.22 56.31 114.82 55.93 115.98 53.57 115.98 53.57 117.15 55.93 119.75 56.31 117.86 58.14 118.31 60.73 115.98 59.51"/><polygon class="cls-16" points="126.55 59.5 124.22 60.73 124.67 58.14 122.78 56.3 125.38 55.92 126.55 53.57 126.56 53.57 127.72 55.92 130.32 56.3 128.43 58.14 128.87 60.73 126.55 59.5"/><polygon class="cls-16" points="137.11 59.5 134.79 60.73 135.23 58.14 133.34 56.3 135.94 55.92 137.1 53.57 137.12 53.57 138.28 55.93 140.88 56.3 138.99 58.14 139.44 60.73 137.11 59.5"/><path class="cls-11" d="M82.7,53.24a7.63,7.63,0,0,1,1.58.16,8.07,8.07,0,0,1,1.52.46,7.63,7.63,0,0,1,1.41.75,8.14,8.14,0,0,1,2.24,2.24,9,9,0,0,1,.75,1.4,8.17,8.17,0,0,1,.46,1.53,7.88,7.88,0,0,1,0,3.16,8,8,0,0,1-.46,1.53,9,9,0,0,1-.75,1.4,8.47,8.47,0,0,1-1,1.23,7.86,7.86,0,0,1-1.23,1,7.63,7.63,0,0,1-1.41.75,7.4,7.4,0,0,1-1.52.46,7.63,7.63,0,0,1-1.58.16,7.73,7.73,0,0,1-1.59-.16,7.4,7.4,0,0,1-1.52-.46,7.54,7.54,0,0,1-1.4-.75,7,7,0,0,1-1.23-1,7.86,7.86,0,0,1-1-1.23,7.54,7.54,0,0,1-.75-1.4,8,8,0,0,1-.47-1.53,8.4,8.4,0,0,1,0-3.16,8.2,8.2,0,0,1,.47-1.53,7.54,7.54,0,0,1,.75-1.4,7.86,7.86,0,0,1,1-1.23,8.14,8.14,0,0,1,2.63-1.76,8.07,8.07,0,0,1,1.52-.46A7.73,7.73,0,0,1,82.7,53.24Z" transform="translate(-5.73 -4.21)"/><path class="cls-4" d="M89.4,61.36a6.7,6.7,0,0,1-12.59,3.19A6.47,6.47,0,0,1,76,61.36a6.7,6.7,0,1,1,13.4,0Z" transform="translate(-5.73 -4.21)"/><path class="cls-10" d="M88.59,64.55a6.7,6.7,0,0,1-11.78,0A10.61,10.61,0,0,1,88.59,64.55Z" transform="translate(-5.73 -4.21)"/><path class="cls-20" d="M85.69,59.07A3,3,0,1,1,84.81,57,3,3,0,0,1,85.69,59.07Z" transform="translate(-5.73 -4.21)"/></svg>