<svg id="Layer_1" data-name="Layer 1" xmlns="http://www.w3.org/2000/svg" viewBox="0 0 178.73 161.93"><defs><style>.cls-1,.cls-2{fill:none;stroke-linecap:round;stroke-linejoin:round;}.cls-1{stroke:#c7d2dd;stroke-width:1.89px;}.cls-2{stroke:#b1b9cc;stroke-width:2px;}.cls-3{fill:#e6ecf5;}.cls-4{fill:#c7d2dd;}.cls-5{fill:#01c1e5;}</style></defs><path class="cls-1" d="M66.44,57.13V43.3a25,25,0,1,1,50.07,0V57.13" transform="translate(-19.2 -12.15)"/><line class="cls-2" x1="1" y1="160.93" x2="177.73" y2="160.93"/><polygon class="cls-3" points="139.73 18.79 38.11 18.79 38.11 159.45 139.56 159.45 139.56 18.79 139.73 18.79"/><circle class="cls-4" cx="84.85" cy="57.13" r="5.11" transform="translate(-23.04 -6) rotate(-4.07)"/><path class="cls-4" d="M134.92,62.24a5.11,5.11,0,1,0-5.1-5.11A5.24,5.24,0,0,0,134.92,62.24Z" transform="translate(-19.2 -12.15)"/><path class="cls-1" d="M84.85,52.13V38.3a25,25,0,1,1,50.07,0V52.13" transform="translate(-19.2 -12.15)"/><path class="cls-5" d="M84,101.26a12.93,12.93,0,0,1-12.23-8.83,2.15,2.15,0,0,1,4.08-1.37A8.78,8.78,0,0,0,84,97a8.47,8.47,0,0,0,8.14-5.9,2.15,2.15,0,0,1,4.08,1.37A12.63,12.63,0,0,1,84,101.26Z" transform="translate(-19.2 -12.15)"/><path class="cls-5" d="M131.21,101.26A12.91,12.91,0,0,1,119,92.43a2.11,2.11,0,0,1,.09-1.65,2.21,2.21,0,0,1,2.91-1,2.08,2.08,0,0,1,1.07,1.24,8.78,8.78,0,0,0,8.15,5.9,8.47,8.47,0,0,0,8.14-5.9,2.15,2.15,0,0,1,4.08,1.37A12.63,12.63,0,0,1,131.21,101.26Z" transform="translate(-19.2 -12.15)"/><path class="cls-5" d="M108.23,118a5.21,5.21,0,1,0-3.68-1.53A5.2,5.2,0,0,0,108.23,118Z" transform="translate(-19.2 -12.15)"/></svg>
