<svg id="Layer_1" data-name="Layer 1" xmlns="http://www.w3.org/2000/svg" viewBox="0 0 184.49 146.12"><defs><style>.cls-1{fill:#ffbc00;}.cls-2{fill:#fff;}</style></defs><path class="cls-1" d="M72.76,4.32h0l.75-1.92s3.64,1.31,3.2,4.36L75.15,7.83S75,4.88,72.76,4.32ZM25.2,34.88h0c-.1-.1.24-.6.76-1.13s1-.86,1.12-.77-.25.6-.77,1.12a2.67,2.67,0,0,1-1.06.79h0Zm-4,.12a2.35,2.35,0,0,1-1-.56h0c-.49-.41-.82-.83-.73-.94s.56.15,1.05.56.82.82.73.93a.05.05,0,0,1-.05,0Zm1.61-2.29h0A6.84,6.84,0,0,1,23,30.12a7,7,0,0,1,.25,2.58A7.08,7.08,0,0,1,23,35.29,6.82,6.82,0,0,1,22.78,32.71Zm3.12,4.18h0a6.6,6.6,0,0,1,2.54-.25,6.62,6.62,0,0,1,2.54.25,6.82,6.82,0,0,1-2.54.25l-.64,0A6.82,6.82,0,0,1,25.9,36.89Zm-10.66.16h0a6.81,6.81,0,0,1,2.54-.24,6.86,6.86,0,0,1,2.55.24,6.67,6.67,0,0,1-2.55.25c-.21,0-.43,0-.64,0A6.69,6.69,0,0,1,15.24,37.05ZM142,38.66h0l-1.21-1.45s2.92-.46,3.29-2.69l2,.57s-.93,3.57-3.85,3.57H142Zm-46.64.11h0L93.52,35s6.59.54,8.55-4.12l4,2.29s-3.21,5.94-8.5,5.94h0A7.67,7.67,0,0,1,95.39,38.77ZM19.31,40.32h0c-.1-.09.2-.59.67-1.1s.94-.86,1-.77-.2.59-.67,1.1a2.51,2.51,0,0,1-1,.78h0Zm8,.52c-.15,0-.6-.38-1.05-.93h0c-.5-.6-.82-1.16-.71-1.24s.59.32,1.1.92.81,1.15.71,1.24h0ZM23,41.22h0a7,7,0,0,1,.24-2.58,6.8,6.8,0,0,1,.25,2.58,6.82,6.82,0,0,1-.25,2.58A7,7,0,0,1,23,41.22Zm140.79,7.84h0c-.1-.1.25-.6.77-1.12s1-.87,1.11-.77-.24.6-.76,1.12a2.7,2.7,0,0,1-1.07.79h0Zm-4,.12a2.4,2.4,0,0,1-1-.57h0c-.49-.41-.82-.83-.73-.94s.56.14,1.05.55.82.83.74.94l-.06,0Zm1.6-2.29h0a6.82,6.82,0,0,1,.25-2.58,7,7,0,0,1,.24,2.58,7,7,0,0,1-.24,2.58A6.77,6.77,0,0,1,161.32,46.89Zm3.13,4.17h0a13,13,0,0,1,5.08,0,6.81,6.81,0,0,1-2.54.24c-.22,0-.43,0-.65,0A6.69,6.69,0,0,1,164.45,51.06Zm-109.09.07s.37-3.86,3.44-4.18l1.42,1.23s-2.81.93-2.8,3.19Zm98.42.1h0a13.08,13.08,0,0,1,5.09,0,6.67,6.67,0,0,1-2.55.25c-.21,0-.43,0-.64,0A6.82,6.82,0,0,1,153.78,51.23Zm4.07,3.26h0c-.1-.09.2-.59.67-1.1s.94-.86,1-.77-.2.59-.67,1.1a2.51,2.51,0,0,1-1,.78h-.05Zm8,.53c-.16,0-.61-.39-1.06-.93h0c-.5-.6-.82-1.16-.71-1.24s.6.32,1.1.92.81,1.15.71,1.24Zm-4.32.38h0a6.8,6.8,0,0,1,.24-2.58A6.8,6.8,0,0,1,162,55.4a6.82,6.82,0,0,1-.25,2.58A6.82,6.82,0,0,1,161.5,55.4ZM.88,56l2.58-2S4,58.48,7.81,58.83L6.67,62S.32,60.8.88,56ZM181.34,72.69h0l.74-1.93s3.64,1.31,3.2,4.36l-1.55,1.08S183.54,73.25,181.34,72.69ZM142.8,89.19Zm0,0-.16-3s5.69-.43,6.92,3.95l-1.43,2.37S146.08,88.62,142.8,89.19ZM22.2,98.36h0l-.16-3s5.69-.43,6.92,4l-1.43,2.38S25.49,97.79,22.2,98.36Zm26.58,8.51a41.64,41.64,0,1,1,41.64,41.64A41.64,41.64,0,0,1,48.78,106.87Z" transform="translate(-0.84 -2.39)"/><path class="cls-2" d="M110.92,89.3c.54.44-7.24,10.9-17.37,23.37l-6.13,7.44-.84,1-.9-.92c-7.9-8.15-13.3-14.2-12.92-14.58s6.43,5,14.58,12.92l-1.74.09,6-7.53C101.75,98.63,110.39,88.87,110.92,89.3Z" transform="translate(-0.84 -2.39)"/></svg>