<svg id="Layer_1" data-name="Layer 1" xmlns="http://www.w3.org/2000/svg" viewBox="0 0 282.23 259.71"><defs><style>.cls-1{fill:#d2d2d2;}.cls-2{fill:#e4e8f5;}.cls-3,.cls-4{fill:none;stroke-linecap:round;stroke-linejoin:round;}.cls-3{stroke:#1c3754;stroke-width:1.41px;}.cls-4{stroke:#b1b9cc;stroke-width:2px;}</style></defs><path class="cls-1" d="M261.17,138.91a125.77,125.77,0,0,1-57.23,105.72,124,124,0,0,1-68.61,20.52c-69.65,0-126.1-56.63-126.1-126.24C9.23,69,65.68,12.68,135.07,12.68A126.2,126.2,0,0,1,261.17,138.91Z" transform="translate(-9.23 -7.74)"/><path class="cls-1" d="M15.45,52.42A4.33,4.33,0,0,0,19.59,48a4.4,4.4,0,1,0-8.8,0A5,5,0,0,0,15.45,52.42Z" transform="translate(-9.23 -7.74)"/><path class="cls-1" d="M15.71,249.56A4.43,4.43,0,0,0,18.83,242a4.43,4.43,0,0,0-6.25,0,4.33,4.33,0,0,0-1.27,3.13A4.72,4.72,0,0,0,15.71,249.56Z" transform="translate(-9.23 -7.74)"/><path class="cls-1" d="M275.92,100.47a9.5,9.5,0,0,0,.52-13.5,9.73,9.73,0,0,0-13.72-.52,9.5,9.5,0,0,0-.52,13.5A10.26,10.26,0,0,0,275.92,100.47Z" transform="translate(-9.23 -7.74)"/><path class="cls-1" d="M273.85,58.13A4.08,4.08,0,0,0,278,54a4.1,4.1,0,0,0-4.14-4.16,4.16,4.16,0,1,0,0,8.31Z" transform="translate(-9.23 -7.74)"/><path class="cls-1" d="M159.67,7.74A17.67,17.67,0,0,1,177.28,25.4V248a17.67,17.67,0,0,1-17.61,17.67H64.9A17.67,17.67,0,0,1,47.29,248V25.4A17.67,17.67,0,0,1,64.9,7.74Z" transform="translate(-9.23 -7.74)"/><path class="cls-1" d="M154.23,197.1H71.63a8.08,8.08,0,0,1-8-8.06V85.41a8.07,8.07,0,0,1,8-8.06h82.6a8.09,8.09,0,0,1,8,8.06V189A8.09,8.09,0,0,1,154.23,197.1Z" transform="translate(-9.23 -7.74)"/><path class="cls-2" d="M90,76.86h2a.47.47,0,0,1,.35.15.45.45,0,0,1,.15.34.51.51,0,0,1-.5.5H90a.45.45,0,0,1-.34-.15.47.47,0,0,1-.15-.35.51.51,0,0,1,.49-.49Z" transform="translate(-9.23 -7.74)"/><path class="cls-2" d="M70.1,77a7.78,7.78,0,0,1,1.53-.15h.56a.47.47,0,0,1,.35.15.45.45,0,0,1,.15.34.51.51,0,0,1-.5.5h-.55a7.75,7.75,0,0,0-1.36.14.54.54,0,0,1-.37-.08.51.51,0,0,1-.21-.32.55.55,0,0,1,.08-.37A.46.46,0,0,1,70.1,77Z" transform="translate(-9.23 -7.74)"/><path class="cls-2" d="M75,197.59h-2a.47.47,0,0,1-.35-.15.48.48,0,0,1-.14-.34.48.48,0,0,1,.14-.35.47.47,0,0,1,.35-.15h2a.5.5,0,0,1,.49.5.48.48,0,0,1-.14.34A.49.49,0,0,1,75,197.59Z" transform="translate(-9.23 -7.74)"/><path class="cls-2" d="M86.91,197.59h-2a.47.47,0,0,1-.35-.15.48.48,0,0,1-.14-.34.48.48,0,0,1,.14-.35.47.47,0,0,1,.35-.15h2a.5.5,0,0,1,.49.5.48.48,0,0,1-.14.34A.49.49,0,0,1,86.91,197.59Z" transform="translate(-9.23 -7.74)"/><path class="cls-1" d="M285.76,208.53l-.77,4.15v.52l-8.55,44.68a8.9,8.9,0,0,1-8.8,7.53H191.25a8.92,8.92,0,0,1-8.8-7.53l-8.54-44.68v-.52l-.78-4.15Z" transform="translate(-9.23 -7.74)"/><path class="cls-1" d="M176.5,208.52h-2.85a6,6,0,0,1-6.21-5.71v-6a6,6,0,0,1,6.21-5.72h111.6a6,6,0,0,1,6.21,5.72v6a6,6,0,0,1-6.21,5.71H282.4" transform="translate(-9.23 -7.74)"/><path class="cls-3" d="M192.67,140.74a4,4,0,0,1,2.82,1.16,4,4,0,0,1,1.16,2.82v25.65a10,10,0,0,1-10.18,10.17h-16.8c-1.77,0-3.54-.44-4.43-1.76-4-3.54-12.38-10.62-14.15-13.28-.44-.88-.88-1.32-.88-2.21v-5.75a6,6,0,0,1,6.19-6.19h2.21v11.06h1.33v-23a4,4,0,1,1,8,0v4.42h1.32v-5.75a4,4,0,0,1,8,0v5.75H179v-3.1a4,4,0,1,1,8,0v3.1h1.77A3.87,3.87,0,0,1,192.67,140.74Z" transform="translate(-9.23 -7.74)"/><line class="cls-4" x1="20.71" y1="258.71" x2="279.12" y2="258.71"/><line class="cls-4" x1="1.81" y1="258.71" x2="11.65" y2="258.71"/></svg>