<?xml version="1.0" encoding="utf-8"?>
<!-- Generator: Adobe Illustrator 26.0.1, SVG Export Plug-In . SVG Version: 6.00 Build 0)  -->
<svg version="1.1" id="Layer_1" xmlns="http://www.w3.org/2000/svg" xmlns:xlink="http://www.w3.org/1999/xlink" x="0px" y="0px"
	 viewBox="0 0 300 275" style="enable-background:new 0 0 300 275;" xml:space="preserve">
<style type="text/css">
	.st0{fill:transparent;}
	.st1{fill:#D2D2D2;}
</style>
<rect class="st0" width="300" height="275"/>
<path class="st1" d="M133.52,265.65c68.48,0,123.99-55.68,123.99-124.34S202,16.96,133.52,16.96S9.54,72.64,9.54,141.3
	S65.05,265.65,133.52,265.65z"/>
<path class="st1" d="M267.99,62.25v160.37c-0.02,1.96-0.82,3.83-2.23,5.19s-3.3,2.1-5.26,2.05H9.04c-1.96,0.05-3.85-0.69-5.26-2.05
	s-2.21-3.23-2.23-5.19V62.25c0.01-1.96,0.81-3.84,2.22-5.2s3.3-2.11,5.27-2.06H260.5c1.96-0.05,3.86,0.7,5.27,2.06
	C267.17,58.41,267.97,60.28,267.99,62.25z"/>
<path class="st1" d="M49.44,24.09c1.89,0.02,3.72-0.73,5.05-2.07s2.08-3.16,2.06-5.06c0.02-1.89-0.73-3.71-2.06-5.05
	s-3.16-2.09-5.05-2.07c-1.89-0.02-3.72,0.73-5.06,2.07c-1.34,1.34-2.08,3.16-2.06,5.06C42.75,21.17,45.68,24.09,49.44,24.09z"/>
<path class="st1" d="M61.68,262.65c1.13,0.01,2.21-0.44,3.01-1.24c0.8-0.8,1.24-1.88,1.23-3.01c0.02-1.13-0.43-2.22-1.22-3.03
	c-0.8-0.8-1.89-1.25-3.02-1.25c-1.13-0.01-2.22,0.44-3.02,1.25s-1.24,1.89-1.23,3.03c-0.01,1.13,0.44,2.21,1.23,3.01
	C59.47,262.21,60.55,262.66,61.68,262.65z"/>
<path class="st1" d="M282.22,236.67H114.14c-4.88-0.05-8.8-4.03-8.77-8.91v-47.37c-0.03-4.88,3.89-8.86,8.77-8.91h168.38
	c4.88,0.05,8.8,4.03,8.77,8.91v47.37c0,2.39-0.96,4.68-2.67,6.35S284.61,236.71,282.22,236.67z"/>
<path class="st1" d="M294.08,80.94c-0.64,2.43-1.63,4.74-2.94,6.88c-3.27,7.85-12.08,17.36-24.49,22.26
	c-8.19,3.28-17.16,4.08-25.8,2.29c-24.66-5.22-40.52-29.32-35.58-54.03c7.5-35.68,51.26-48.79,77.05-23.25
	C294.59,46.92,299.14,64.66,294.08,80.94z"/>
<rect x="24" y="10" class="st1" width="2" height="2"/>
</svg>
